<?xml version="1.0" standalone="no"?>
<!DOCTYPE svg PUBLIC "-//W3C//DTD SVG 20010904//EN"
 "http://www.w3.org/TR/2001/REC-SVG-20010904/DTD/svg10.dtd">
<svg version="1.0" xmlns="http://www.w3.org/2000/svg"
 width="512.000000pt" height="512.000000pt" viewBox="0 0 512.000000 512.000000"
 preserveAspectRatio="xMidYMid meet">

<g transform="translate(0.000000,512.000000) scale(0.100000,-0.100000)"
fill="#ffffff33" stroke="none">
<path d="M2050 4089 c-103 -47 -147 -104 -185 -244 -46 -167 -59 -175 -284
-175 -159 0 -162 -1 -186 -25 -27 -26 -33 -72 -15 -105 9 -17 -30 -61 -301
-339 -307 -315 -312 -320 -335 -305 -31 21 -78 10 -104 -23 -20 -26 -20 -35
-18 -832 l3 -806 23 -50 c28 -60 71 -107 132 -143 l45 -27 1819 -3 1819 -2 51
23 c75 35 111 70 148 145 l33 67 0 1095 0 1095 -26 56 c-32 68 -87 124 -148
153 -44 20 -64 21 -506 26 -458 5 -460 5 -492 28 -32 23 -37 34 -82 188 -26
88 -89 165 -166 200 l-50 24 -565 0 c-546 0 -566 -1 -610 -21z m810 -1020
c131 -36 223 -91 331 -199 81 -81 102 -109 142 -190 61 -124 80 -207 80 -345
1 -83 -5 -129 -21 -188 -92 -326 -365 -549 -692 -565 -220 -10 -404 57 -561
205 -158 149 -239 337 -239 554 0 498 479 862 960 728z"/>
<path d="M725 3838 c-39 -22 -44 -41 -45 -140 l0 -98 -91 0 c-90 0 -123 -9
-146 -39 -19 -24 -15 -76 6 -102 17 -22 29 -24 123 -29 l103 -5 5 -103 c5 -94
7 -106 29 -123 32 -26 74 -24 108 5 27 23 28 29 31 125 l4 101 97 0 c88 0 99
2 118 23 24 26 30 51 20 89 -11 42 -53 58 -152 58 l-85 0 0 85 c0 96 -14 134
-55 153 -32 15 -44 15 -70 0z"/>
</g>
</svg>
