<?xml version="1.0" standalone="no"?>
<!DOCTYPE svg PUBLIC "-//W3C//DTD SVG 20010904//EN"
 "http://www.w3.org/TR/2001/REC-SVG-20010904/DTD/svg10.dtd">
<svg version="1.0" xmlns="http://www.w3.org/2000/svg"
 width="225.000000pt" height="225.000000pt" viewBox="0 0 225.000000 225.000000"
 preserveAspectRatio="xMidYMid meet">

<g transform="translate(0.000000,225.000000) scale(0.100000,-0.100000)"
fill="#fff" stroke="none">
<path d="M1304 2240 c-61 -11 -1196 -443 -1229 -468 -13 -9 -33 -32 -46 -51
-33 -48 -34 -140 -1 -193 25 -41 91 -78 139 -78 32 0 1048 343 1070 361 27 23
8 69 -28 69 -10 0 -242 -76 -516 -170 -274 -93 -512 -170 -529 -170 -67 0 -99
90 -51 145 17 20 148 74 572 237 303 116 573 217 600 224 66 18 177 18 250 -1
143 -38 222 -109 381 -345 l112 -165 -37 0 c-33 0 -36 -2 -36 -29 0 -27 13
-39 115 -113 63 -45 124 -83 136 -83 23 0 44 18 44 38 0 8 -89 145 -197 304
-204 300 -255 360 -357 419 -106 61 -272 90 -392 69z"/>
<path d="M1531 2001 c-10 -6 -20 -73 -37 -237 -13 -126 -23 -234 -24 -240 0
-7 -11 -9 -25 -6 -40 7 -55 -13 -55 -77 -1 -132 -81 -239 -205 -277 l-47 -14
42 46 c61 66 93 142 98 234 4 62 1 79 -13 93 -40 40 -68 8 -70 -78 -3 -106
-63 -202 -156 -251 -34 -17 -33 -13 8 42 74 98 87 319 20 340 -30 9 -59 -29
-50 -65 23 -83 -9 -196 -75 -264 -49 -52 -77 -65 -173 -83 -160 -30 -275 -87
-392 -194 -37 -34 -67 -59 -67 -56 0 23 87 144 146 203 92 93 181 138 304 154
47 6 95 13 107 15 30 6 39 40 17 65 -16 18 -26 19 -84 14 -322 -32 -550 -255
-646 -632 -24 -97 -22 -124 11 -137 25 -9 39 2 69 57 73 131 194 263 304 334
82 53 84 51 44 -27 -36 -70 -37 -76 -37 -179 0 -96 3 -112 28 -162 15 -31 45
-77 67 -102 l41 -46 -38 5 c-21 3 -76 12 -121 20 -92 16 -112 11 -112 -31 0
-31 15 -40 85 -53 489 -91 864 44 1095 396 27 42 50 74 50 71 0 -22 181 -673
190 -684 23 -28 70 -11 70 25 0 8 -72 284 -160 612 -88 328 -160 600 -160 605
0 4 24 8 53 8 38 1 71 9 111 29 31 15 59 26 60 25 2 -2 83 -301 180 -664 97
-363 179 -668 182 -677 10 -34 68 -33 79 1 2 9 -82 341 -188 737 l-193 721
-140 194 c-138 191 -159 212 -193 190z m153 -281 l86 -121 -26 -24 c-35 -32
-88 -49 -136 -42 -22 3 -42 8 -45 10 -8 8 23 297 31 297 2 0 43 -54 90 -120z
m-131 -521 c6 -24 3 -27 -26 -33 -17 -4 -66 -9 -107 -13 l-75 -6 34 38 c46 53
87 144 96 213 l8 57 32 -115 c17 -63 35 -127 38 -141z m40 -153 c8 -32 5 -46
-24 -104 -66 -130 -201 -285 -289 -332 -18 -10 -19 -9 -4 26 53 127 25 301
-62 395 l-25 26 148 7 c81 4 166 10 188 15 55 12 58 10 68 -33z m-534 -1 c59
-32 100 -75 133 -138 31 -59 32 -182 1 -249 -26 -57 -88 -119 -151 -149 -70
-34 -179 -32 -249 4 -243 125 -223 458 34 553 61 23 168 13 232 -21z"/>
<path d="M869 951 c-122 -40 -165 -184 -83 -281 36 -42 79 -62 134 -62 174 0
243 231 96 322 -38 23 -109 33 -147 21z m115 -107 c37 -37 35 -86 -3 -125 -20
-20 -39 -29 -61 -29 -22 0 -41 9 -61 29 -37 37 -38 79 -3 120 35 41 89 43 128
5z"/>
<path d="M1352 1931 c-8 -4 -12 -21 -10 -37 2 -25 7 -29 32 -29 36 0 56 27 40
53 -13 19 -43 26 -62 13z"/>
<path d="M1877 72 c-10 -10 -17 -23 -17 -29 0 -13 33 -43 48 -43 15 0 42 29
42 45 0 17 -27 45 -44 45 -7 0 -20 -8 -29 -18z"/>
</g>
</svg>
