<?xml version="1.0" standalone="no"?>
<!DOCTYPE svg PUBLIC "-//W3C//DTD SVG 20010904//EN"
 "http://www.w3.org/TR/2001/REC-SVG-20010904/DTD/svg10.dtd">
<svg version="1.0" xmlns="http://www.w3.org/2000/svg"
 width="658.000000pt" height="980.000000pt" viewBox="0 0 658.000000 980.000000"
 preserveAspectRatio="xMidYMid meet">

<g transform="translate(0.000000,980.000000) scale(0.100000,-0.100000)"
fill="#fff" stroke="none">
    <path d="M2920 9183 l0 -618 -83 -44 c-168 -90 -292 -197 -407 -351 -80 -109
    -164 -281 -189 -390 -59 -255 -24 -563 92 -790 l53 -105 -204 -500 c-666
    -1636 -1101 -2697 -1108 -2704 -2 -2 -46 3 -97 12 -134 24 -153 23 -171 -11
    -17 -32 -373 -883 -435 -1040 -23 -56 -41 -114 -41 -127 0 -28 49 -130 111
    -232 l41 -66 -135 -326 -135 -326 76 -77 75 -77 -91 -293 c-51 -161 -132 -419
    -182 -573 -90 -280 -90 -280 -69 -295 11 -8 50 -39 86 -69 36 -29 68 -49 73
    -45 8 10 296 560 485 927 69 136 130 247 133 247 4 0 61 -7 126 -15 66 -8 120
    -14 122 -12 1 1 21 40 44 87 83 165 342 783 1062 2530 252 613 462 1118 466
    1122 4 3 318 10 697 14 l690 7 264 -664 c652 -1640 1282 -3224 1284 -3225 1 0
    56 4 122 11 66 7 123 9 127 6 4 -3 57 -165 119 -359 l113 -354 258 -221 c142
    -122 262 -223 267 -225 4 -1 10 160 13 358 l6 361 -184 281 c-101 155 -184
    288 -184 297 0 9 20 52 45 96 25 44 55 100 68 123 l22 44 -178 350 c-98 192
    -176 356 -173 363 2 7 59 54 125 105 67 50 121 96 121 102 0 15 -482 1064
    -495 1077 -3 2 -51 -10 -108 -28 -56 -17 -107 -31 -113 -31 -6 0 -16 12 -23
    28 -38 82 -452 1084 -520 1259 -18 45 -18 52 -5 57 9 3 87 6 175 6 l159 0 0
    495 0 495 -184 0 -184 0 -7 -107 c-3 -60 -7 -115 -8 -123 -2 -16 -122 -56
    -199 -66 -57 -8 -39 -37 -192 327 -227 543 -336 829 -336 878 0 9 36 76 80
    150 112 188 152 300 172 483 22 199 -17 408 -111 603 -62 127 -119 207 -217
    307 -98 99 -193 171 -306 233 l-88 47 0 609 0 609 -405 0 -405 0 0 -617z m726
    -1242 c100 -45 224 -276 224 -416 0 -67 -27 -172 -62 -243 -55 -111 -182 -233
    -280 -268 -118 -42 -327 -36 -428 13 -81 39 -217 179 -261 267 -30 63 -34 80
    -37 170 -7 179 48 326 161 438 l59 58 291 0 c262 0 296 -2 333 -19z m-116
    -1698 c29 -76 95 -244 146 -373 86 -217 92 -235 74 -242 -59 -22 -834 -20
    -870 2 -11 7 67 208 276 718 l13 32 154 0 154 0 53 -137z"/>
</g>
</svg>
