<svg width="50" height="50" viewBox="0 0 50 50" fill="none" xmlns="http://www.w3.org/2000/svg">
<path d="M25 0C11.1925 0 0 11.1932 0 25.0002C0 38.8072 11.1924 50 25 50C38.8075 50 50 38.8072 50 25.0002C50 11.1933 38.8075 0 25 0ZM34.9627 34.305C32.7746 36.2146 30.0397 37.7765 26.7577 38.9904C23.4759 40.2048 20.3362 40.8115 17.339 40.8115C14.4553 40.8115 13.0137 39.7306 13.0137 37.5677C13.0137 36.7836 13.2603 35.165 13.7533 32.7112L16.2198 20.3239C16.4345 19.2618 16.5423 18.4965 16.5423 18.0286C16.5423 17.5863 16.3904 17.1816 16.0869 16.8147C17.7688 16.1824 18.9386 15.8662 19.5965 15.8662C20.3802 15.8662 20.7727 16.3211 20.7727 17.2318C20.7727 17.4469 20.5701 18.5535 20.1655 20.5515L18.0979 30.9283C17.5792 33.5717 17.32 35.2347 17.32 35.9173C17.32 36.6763 17.576 37.191 18.088 37.4618C18.6004 37.7325 19.5646 37.869 20.9811 37.8712C25.572 37.869 29.4163 36.4705 32.5133 33.6772C35.6103 30.8833 37.1605 27.4186 37.1633 23.2833C37.1606 20.0835 36.0343 17.5232 33.7843 15.6024C31.5343 13.6812 28.5379 12.7196 24.7945 12.717C21.7465 12.7196 18.9041 13.4535 16.267 14.9193C13.6303 16.3852 11.4266 18.4523 9.65582 21.1204C9.35218 20.463 9.20045 19.7862 9.20045 19.0905C9.20045 16.8145 10.9394 14.7752 14.4177 12.973C17.8955 11.1708 21.835 10.2699 26.2359 10.2699C30.8652 10.2699 34.5101 11.2943 37.1723 13.343C39.8346 15.3918 41.1657 18.1991 41.1657 21.7654C41.1657 26.5083 39.098 30.688 34.9627 34.305Z" fill="#fa97a5"/>
</svg>
