<?xml version="1.0" standalone="no"?>
<!DOCTYPE svg PUBLIC "-//W3C//DTD SVG 20010904//EN"
 "http://www.w3.org/TR/2001/REC-SVG-20010904/DTD/svg10.dtd">
<svg version="1.0" xmlns="http://www.w3.org/2000/svg"
 width="512.000000pt" height="512.000000pt" viewBox="0 0 512.000000 512.000000"
 preserveAspectRatio="xMidYMid meet">

<g transform="translate(0.000000,512.000000) scale(0.100000,-0.100000)"
fill="#fff" stroke="none">
<path d="M4620 5104 c-14 -9 -91 -82 -172 -163 l-148 -146 -63 63 c-63 62
-100 81 -146 74 -15 -2 -76 -55 -157 -133 -128 -127 -132 -129 -160 -118 -16
6 -59 11 -95 11 -119 1 -148 -19 -420 -289 -132 -130 -239 -230 -239 -222 0
24 -48 117 -82 160 -46 57 -135 113 -212 134 -191 52 -401 -45 -489 -224 -30
-63 -32 -72 -32 -181 0 -109 2 -118 32 -181 41 -83 120 -160 209 -201 l66 -31
-73 -73 -72 -73 -39 31 c-53 42 -101 57 -178 57 -102 1 -143 -24 -299 -183
l-134 -135 6 -41 c5 -38 25 -61 236 -275 127 -129 231 -238 231 -242 0 -5 -49
-58 -110 -118 l-109 -109 -208 205 c-192 190 -214 208 -293 247 -122 59 -199
75 -345 69 -139 -5 -239 -32 -344 -94 -132 -79 -192 -152 -170 -210 5 -15 133
-152 284 -303 343 -345 338 -336 343 -571 5 -215 -15 -290 -105 -390 -58 -64
-63 -116 -16 -164 19 -18 36 -25 66 -25 37 0 47 6 98 59 59 60 96 123 132 221
28 77 36 370 13 480 -32 153 -64 198 -328 466 -131 132 -238 243 -238 247 0 4
21 17 48 31 156 79 351 76 499 -9 28 -16 173 -152 353 -331 330 -328 349 -342
479 -366 73 -14 164 -1 236 33 27 13 81 54 120 91 l71 67 95 -95 c112 -113
180 -152 285 -162 l69 -7 8 -69 c25 -226 235 -386 458 -348 67 12 161 50 174
72 8 13 25 13 25 -1 0 -5 12 -35 27 -65 34 -69 115 -146 193 -183 l60 -29
-185 -190 c-102 -104 -208 -204 -235 -222 -78 -50 -156 -70 -275 -70 -205 0
-330 -32 -454 -114 -41 -28 -176 -155 -353 -333 -285 -286 -288 -289 -288
-330 0 -57 31 -92 88 -100 l42 -6 303 300 c261 258 311 303 367 330 79 39 161
53 305 53 132 0 213 18 315 68 89 43 182 132 777 739 402 411 411 422 434 548
19 103 -18 235 -88 319 -44 53 -123 106 -184 124 -45 13 -58 21 -53 32 3 8 11
41 17 73 40 211 -134 433 -355 454 l-65 6 -6 64 c-10 135 -99 259 -228 321
l-58 28 200 200 c213 212 243 253 254 349 3 30 0 70 -8 100 l-13 50 127 130
c75 76 130 141 134 158 12 45 -3 77 -68 144 l-61 64 151 152 c83 84 156 162
162 174 44 87 -59 180 -139 127z m-387 -522 l107 -107 -80 -80 -80 -80 -110
110 -110 110 77 77 c43 43 80 78 83 78 3 0 54 -48 113 -108z m-306 -294 c106
-106 197 -204 204 -219 20 -49 -3 -86 -126 -209 l-115 -115 -97 97 c-54 53
-108 101 -121 108 -55 28 -132 -29 -132 -97 0 -32 11 -47 100 -138 55 -55 100
-105 100 -111 0 -5 -54 -63 -120 -129 l-119 -119 -105 102 c-100 97 -107 102
-147 102 -61 0 -99 -37 -99 -97 0 -42 4 -49 102 -149 l102 -105 -170 -170
-171 -171 -252 248 -252 248 562 562 c310 310 572 565 584 566 51 9 82 -14
272 -204z m-1221 -17 c93 -42 148 -153 124 -250 -38 -159 -228 -223 -354 -119
-50 41 -76 98 -76 168 0 70 26 127 76 168 65 54 155 67 230 33z m-174 -1208
l337 -337 -57 -60 c-32 -34 -69 -85 -82 -114 -13 -29 -27 -51 -31 -50 -4 2
-172 170 -373 374 l-365 371 78 77 c126 122 89 141 493 -261z m1347 169 c81
-49 114 -158 76 -250 -17 -39 -677 -710 -749 -759 -55 -39 -144 -43 -206 -11
-80 41 -121 131 -100 222 12 49 24 63 394 432 325 326 387 383 421 392 55 14
112 5 164 -26z m412 -415 c98 -52 134 -181 77 -277 -15 -25 -185 -203 -380
-396 -297 -296 -361 -354 -401 -369 -161 -60 -318 103 -252 263 21 51 724 757
780 783 55 26 122 24 176 -4z m-1811 -473 c-107 -110 -223 -122 -325 -32 l-47
41 114 114 113 113 95 -95 95 -95 -45 -46z m2083 -55 c44 -12 102 -60 124
-103 22 -43 22 -132 -1 -176 -24 -45 -357 -384 -415 -421 -36 -23 -56 -29
-102 -29 -70 0 -96 9 -143 50 -51 45 -72 121 -56 193 12 49 23 63 224 264 213
214 234 230 306 232 14 1 42 -4 63 -10z"/>
<path d="M843 1153 c-35 -7 -73 -59 -73 -100 0 -80 109 -125 165 -69 73 73 10
188 -92 169z"/>
<path d="M370 719 c-154 -145 -171 -172 -146 -232 17 -43 41 -57 97 -57 41 0
46 4 186 143 134 133 143 145 143 180 0 55 -43 97 -99 97 -39 0 -49 -7 -181
-131z"/>
</g>
</svg>
