<?xml version="1.0" standalone="no"?>
<!DOCTYPE svg PUBLIC "-//W3C//DTD SVG 20010904//EN"
 "http://www.w3.org/TR/2001/REC-SVG-20010904/DTD/svg10.dtd">
<svg version="1.0" xmlns="http://www.w3.org/2000/svg"
 width="319.000000pt" height="244.000000pt" viewBox="0 0 319.000000 244.000000"
 preserveAspectRatio="xMidYMid meet">

<g transform="translate(0.000000,244.000000) scale(0.100000,-0.100000)"
fill="#fff" stroke="none">
<path d="M707 2383 c-137 -73 -207 -161 -207 -261 0 -50 1 -52 28 -52 46 0
134 51 169 98 34 45 87 195 81 230 -3 20 -6 19 -71 -15z"/>
<path d="M2406 2393 c40 -189 100 -276 211 -309 69 -21 73 -19 73 27 0 109
-68 200 -199 268 -43 22 -82 41 -85 41 -4 0 -4 -12 0 -27z"/>
<path d="M340 2274 c-38 -81 -61 -181 -53 -232 7 -42 44 -122 66 -141 13 -10
21 -6 46 21 70 74 79 183 26 313 -47 117 -48 117 -85 39z"/>
<path d="M2782 2284 c-75 -149 -71 -288 13 -364 l27 -25 27 33 c71 84 67 212
-12 367 l-25 49 -30 -60z"/>
<path d="M654 2066 c-155 -57 -243 -151 -244 -258 0 -33 3 -38 23 -38 48 0
129 32 166 65 42 38 83 108 111 191 11 31 20 59 20 61 0 6 -15 2 -76 -21z"/>
<path d="M2464 2064 c12 -51 72 -169 105 -206 42 -48 105 -78 164 -78 54 0 56
5 32 86 -22 75 -73 127 -168 174 -45 22 -95 42 -111 46 -28 7 -29 6 -22 -22z"/>
<path d="M185 1978 c-15 -41 -35 -150 -35 -189 0 -90 51 -198 111 -229 16 -9
22 -4 44 39 32 64 34 155 5 220 -20 43 -106 171 -116 171 -2 0 -7 -6 -9 -12z"/>
<path d="M2946 1937 c-91 -123 -114 -234 -67 -329 12 -27 28 -48 35 -48 7 0
28 17 48 38 63 63 86 146 69 248 -12 80 -30 144 -39 144 -4 0 -24 -24 -46 -53z"/>
<path d="M2634 1706 c8 -91 35 -182 66 -225 23 -33 113 -91 141 -91 22 0 29
21 29 83 -1 95 -64 189 -184 270 l-59 40 7 -77z"/>
<path d="M484 1727 c-114 -84 -163 -162 -164 -259 0 -85 3 -89 51 -72 114 40
164 127 183 317 4 31 2 57 -3 57 -5 0 -35 -19 -67 -43z"/>
<path d="M3064 1580 c-131 -86 -194 -190 -179 -295 8 -52 23 -57 84 -25 86 43
145 153 158 293 3 37 4 67 2 67 -2 0 -32 -18 -65 -40z"/>
<path d="M63 1542 c7 -84 38 -175 75 -222 16 -19 55 -48 86 -64 69 -36 76 -30
76 57 0 102 -41 169 -152 247 -39 28 -76 50 -81 50 -6 0 -8 -26 -4 -68z"/>
<path d="M482 1416 c-73 -81 -107 -155 -107 -236 0 -70 19 -130 41 -130 8 0
39 24 68 53 39 38 58 64 66 97 14 52 9 245 -7 261 -7 7 -26 -8 -61 -45z"/>
<path d="M2633 1423 c-12 -74 -9 -184 6 -227 16 -45 72 -111 113 -132 28 -15
29 -15 45 23 26 59 22 150 -10 214 -25 53 -120 169 -137 169 -5 0 -12 -21 -17
-47z"/>
<path d="M20 1248 c0 -24 69 -130 113 -176 53 -55 101 -80 169 -87 74 -8 82
-1 62 64 -29 97 -116 165 -249 191 -33 6 -68 14 -77 16 -11 3 -18 0 -18 -8z"/>
<path d="M3065 1241 c-89 -23 -111 -32 -161 -69 -42 -31 -76 -89 -89 -149 l-7
-33 59 0 c76 1 136 28 194 90 38 41 109 154 109 174 0 10 -30 6 -105 -13z"/>
<path d="M2565 1118 c-26 -84 -31 -209 -11 -262 17 -44 85 -121 107 -121 19 0
52 73 57 125 6 67 -19 144 -78 233 -27 43 -52 77 -54 77 -3 0 -12 -24 -21 -52z"/>
<path d="M563 1118 c-90 -126 -115 -239 -73 -336 12 -29 28 -52 35 -52 7 0 31
18 53 41 55 54 76 120 69 209 -6 72 -34 180 -46 180 -4 0 -21 -19 -38 -42z"/>
<path d="M3000 970 c-108 -14 -180 -49 -225 -110 -27 -37 -50 -98 -41 -108 4
-3 32 -8 64 -10 85 -6 146 23 224 107 35 37 71 82 81 99 l18 32 -33 -1 c-18
-1 -58 -5 -88 -9z"/>
<path d="M86 941 c36 -62 124 -149 176 -175 39 -19 67 -26 112 -26 87 0 93 6
65 69 -43 100 -129 149 -283 158 l-89 6 19 -32z"/>
<path d="M716 933 c-78 -161 -76 -316 5 -389 21 -19 22 -19 53 18 58 67 71
161 37 259 -22 65 -63 149 -71 149 -4 0 -14 -17 -24 -37z"/>
<path d="M2403 893 c-29 -61 -37 -94 -41 -153 -5 -84 7 -124 53 -178 l28 -33
28 27 c70 67 78 197 20 337 -18 42 -37 77 -43 77 -5 0 -25 -35 -45 -77z"/>
<path d="M2229 733 c-85 -90 -114 -149 -113 -228 0 -33 8 -77 17 -98 l17 -38
31 18 c48 28 98 92 114 147 16 52 19 163 7 230 l-7 39 -66 -70z"/>
<path d="M884 756 c-3 -19 -4 -77 -2 -128 4 -115 29 -172 96 -223 24 -19 49
-35 54 -35 17 0 40 75 40 132 0 43 -7 73 -26 111 -25 51 -129 177 -146 177 -5
0 -12 -15 -16 -34z"/>
<path d="M317 699 c-38 -4 -72 -11 -75 -14 -12 -12 109 -114 171 -145 69 -34
153 -40 213 -15 l36 15 -24 41 c-54 97 -160 136 -321 118z"/>
<path d="M2725 704 c-87 -22 -150 -67 -181 -126 -19 -36 -15 -42 41 -58 97
-27 199 8 305 106 46 43 58 59 47 65 -17 10 -185 20 -212 13z"/>
<path d="M1110 560 c0 -6 16 -42 36 -81 66 -132 151 -199 252 -199 58 0 59 2
38 73 -27 91 -92 148 -210 186 -88 28 -116 33 -116 21z"/>
<path d="M1985 551 c-81 -23 -133 -52 -177 -96 -37 -37 -68 -107 -68 -153 0
-24 2 -25 58 -19 72 6 112 26 167 82 35 36 115 174 115 198 0 11 -30 7 -95
-12z"/>
<path d="M570 471 c-125 -35 -123 -33 -57 -75 98 -63 144 -79 227 -80 66 -1
81 3 124 28 l50 29 -51 47 c-78 72 -163 87 -293 51z"/>
<path d="M2383 468 c-24 -11 -57 -36 -74 -56 l-31 -35 23 -18 c59 -45 157 -55
246 -25 64 21 179 94 167 106 -5 4 -40 18 -78 29 -90 28 -195 28 -253 -1z"/>
<path d="M951 324 c-57 -15 -135 -56 -185 -97 l-29 -23 74 -22 c109 -32 211
-30 279 6 29 15 62 40 74 55 21 29 21 29 1 44 -58 44 -139 58 -214 37z"/>
<path d="M2098 327 c-20 -8 -51 -23 -68 -34 l-31 -19 21 -27 c64 -82 191 -107
338 -67 45 12 82 26 82 31 0 4 -20 22 -45 39 -109 75 -222 104 -297 77z"/>
<path d="M1550 260 c-11 -11 -20 -29 -20 -40 0 -27 35 -60 63 -60 50 0 76 70
39 103 -25 23 -58 21 -82 -3z"/>
<path d="M1237 206 c-52 -22 -150 -89 -176 -120 -27 -32 215 -54 293 -27 40
14 109 70 127 102 8 15 3 22 -33 40 -64 33 -141 35 -211 5z"/>
<path d="M1748 208 c-27 -11 -48 -25 -48 -31 0 -22 96 -103 136 -115 73 -22
294 -7 294 19 0 16 -104 92 -165 120 -74 36 -148 38 -217 7z"/>
</g>
</svg>
