<svg width="182" height="60" viewBox="0 10 182 60" fill="none" xmlns="http://www.w3.org/2000/svg">
<path d="M13.5421 54H11.9089V16.436H13.5421V54ZM10.2757 54H8.64244V16.436H10.2757V54ZM7.00922 54H5.376V16.436H7.00922V54ZM3.74279 54H2.10957V16.436H3.74279V54ZM25.4736 35.218L35.0688 16.436H36.8835L27.2883 35.218L36.8835 54H35.0688L25.4736 35.218ZM21.8216 35.218L31.4167 16.436H33.2314L23.6363 35.218L33.2314 54H31.4167L21.8216 35.218ZM18.1695 35.218L27.7647 16.436H29.5794L19.9842 35.218L29.5794 54H27.7647L18.1695 35.218ZM14.4948 35.218L24.1126 16.436H25.9273L16.3095 35.218L25.9273 54H24.1126L14.4948 35.218ZM52.5125 33.0631C51.2422 34.3333 50.607 35.8683 50.607 37.6678C50.607 39.4674 51.2422 41.0099 52.5125 42.2953C53.7979 43.5656 55.3403 44.2007 57.1399 44.2007C58.9395 44.2007 60.4744 43.5656 61.7447 42.2953C63.0301 41.0099 63.6728 39.4674 63.6728 37.6678C63.6728 35.8683 63.0301 34.3333 61.7447 33.0631C60.4744 31.7777 58.9395 31.135 57.1399 31.135C55.3403 31.135 53.7979 31.7777 52.5125 33.0631ZM51.3556 43.4521C49.7677 41.8492 48.9738 39.9211 48.9738 37.6678C48.9738 35.4146 49.7677 33.4941 51.3556 31.9062C52.9586 30.3032 54.8867 29.5018 57.1399 29.5018C59.3931 29.5018 61.3137 30.3032 62.9015 31.9062C64.5045 33.4941 65.306 35.4146 65.306 37.6678C65.306 39.9211 64.5045 41.8492 62.9015 43.4521C61.3137 45.04 59.3931 45.8339 57.1399 45.8339C54.8867 45.8339 52.9586 45.04 51.3556 43.4521ZM50.1987 30.7493C48.2933 32.6699 47.3406 34.9761 47.3406 37.6678C47.3406 40.3596 48.2933 42.6658 50.1987 44.5863C52.1193 46.5069 54.433 47.4671 57.1399 47.4671C59.8468 47.4671 62.153 46.5069 64.0584 44.5863C65.9789 42.6658 66.9392 40.3596 66.9392 37.6678C66.9392 34.9761 65.9789 32.6699 64.0584 30.7493C62.153 28.8288 59.8468 27.8685 57.1399 27.8685C54.433 27.8685 52.1193 28.8288 50.1987 30.7493ZM47.2272 43.4068C46.214 41.6526 45.7074 39.7396 45.7074 37.6678C45.7074 35.5961 46.214 33.6831 47.2272 31.9289C48.2555 30.1747 49.6468 28.791 51.401 27.7778C53.1552 26.7495 55.0681 26.2353 57.1399 26.2353C59.2117 26.2353 61.1246 26.7495 62.8788 27.7778C64.633 28.791 66.0167 30.1747 67.0299 31.9289C68.0583 33.6831 68.5724 35.5961 68.5724 37.6678C68.5724 39.7396 68.0583 41.6526 67.0299 43.4068C66.0167 45.161 64.633 46.5522 62.8788 47.5806C61.1246 48.5938 59.2117 49.1004 57.1399 49.1004C55.0681 49.1004 53.1552 48.5938 51.401 47.5806C49.6468 46.5522 48.2555 45.161 47.2272 43.4068ZM45.0949 32.6094C44.4144 34.2124 44.0742 35.8985 44.0742 37.6678C44.0742 39.4372 44.4144 41.1309 45.0949 42.749C45.7906 44.3519 46.7206 45.7432 47.885 46.9227C49.0646 48.0872 50.4558 49.0172 52.0588 49.7128C53.6769 50.3933 55.3706 50.7336 57.1399 50.7336C58.9092 50.7336 60.5954 50.3933 62.1983 49.7128C63.8164 49.0172 65.2077 48.0872 66.3721 46.9227C67.5517 45.7432 68.4817 44.3519 69.1622 42.749C69.8578 41.1309 70.2056 39.4372 70.2056 37.6678C70.2056 35.8985 69.8578 34.2124 69.1622 32.6094C68.4817 30.9913 67.5517 29.6 66.3721 28.4356C65.2077 27.2561 63.8164 26.3261 62.1983 25.6455C60.5954 24.9499 58.9092 24.6021 57.1399 24.6021C55.3706 24.6021 53.6769 24.9499 52.0588 25.6455C50.4558 26.3261 49.0646 27.2561 47.885 28.4356C46.7206 29.6 45.7906 30.9913 45.0949 32.6094ZM43.5978 43.3841C42.8266 41.5694 42.441 39.664 42.441 37.6678C42.441 35.6717 42.8266 33.7663 43.5978 31.9516C44.3842 30.1369 45.4276 28.5793 46.7281 27.2788C48.0438 25.9631 49.609 24.9197 51.4236 24.1484C53.2383 23.3621 55.1437 22.9689 57.1399 22.9689C59.1361 22.9689 61.0415 23.3621 62.8562 24.1484C64.6708 24.9197 66.2284 25.9631 67.529 27.2788C68.8446 28.5793 69.8881 30.1369 70.6593 31.9516C71.4457 33.7663 71.8389 35.6717 71.8389 37.6678C71.8389 39.664 71.4457 41.5694 70.6593 43.3841C69.8881 45.1988 68.8446 46.7639 67.529 48.0796C66.2284 49.3801 64.6708 50.4236 62.8562 51.2099C61.0415 51.9812 59.1361 52.3668 57.1399 52.3668C55.1437 52.3668 53.2383 51.9812 51.4236 51.2099C49.609 50.4236 48.0438 49.3801 46.7281 48.0796C45.4276 46.7639 44.3842 45.1988 43.5978 43.3841ZM42.1007 31.3391C41.2387 33.3504 40.8077 35.46 40.8077 37.6678C40.8077 39.8757 41.2387 41.9928 42.1007 44.0192C42.9627 46.0305 44.1195 47.7696 45.5713 49.2365C47.0382 50.6882 48.7772 51.8451 50.7885 52.707C52.8149 53.569 54.932 54 57.1399 54C59.3478 54 61.4573 53.569 63.4686 52.707C65.495 51.8451 67.2341 50.6882 68.6858 49.2365C70.1527 47.7696 71.3171 46.0305 72.1791 44.0192C73.0411 41.9928 73.4721 39.8757 73.4721 37.6678C73.4721 35.46 73.0411 33.3504 72.1791 31.3391C71.3171 29.3127 70.1527 27.5736 68.6858 26.1219C67.2341 24.655 65.495 23.4906 63.4686 22.6286C61.4573 21.7667 59.3478 21.3357 57.1399 21.3357C54.932 21.3357 52.8149 21.7667 50.7885 22.6286C48.7772 23.4906 47.0382 24.655 45.5713 26.1219C44.1195 27.5736 42.9627 29.3127 42.1007 31.3391ZM40.6036 44.6544C39.6509 42.4314 39.1745 40.1025 39.1745 37.6678C39.1745 35.2331 39.6509 32.9118 40.6036 30.704C41.5563 28.481 42.8341 26.568 44.4371 24.965C46.0401 23.3621 47.9455 22.0842 50.1534 21.1315C52.3764 20.1788 54.7052 19.7025 57.1399 19.7025C59.5746 19.7025 61.8959 20.1788 64.1038 21.1315C66.3267 22.0842 68.2397 23.3621 69.8427 24.965C71.4457 26.568 72.7235 28.481 73.6762 30.704C74.6289 32.9118 75.1053 35.2331 75.1053 37.6678C75.1053 40.1025 74.6289 42.4314 73.6762 44.6544C72.7235 46.8622 71.4457 48.7677 69.8427 50.3706C68.2397 51.9736 66.3267 53.2514 64.1038 54.2042C61.8959 55.1569 59.5746 55.6332 57.1399 55.6332C54.7052 55.6332 52.3764 55.1569 50.1534 54.2042C47.9455 53.2514 46.0401 51.9736 44.4371 50.3706C42.8341 48.7677 41.5563 46.8622 40.6036 44.6544ZM78.78 21.3357H80.4132V54H78.78V21.3357ZM88.5793 21.3357H90.2125V45.8339H102.258V47.4671H90.2125V49.1004H102.258V50.7336H90.2125V52.3668H102.258V54H88.5793V21.3357ZM85.3129 21.3357H86.9461V54H85.3129V21.3357ZM82.0465 21.3357H83.6797V54H82.0465V21.3357ZM118.34 33.0631C117.07 34.3333 116.435 35.8683 116.435 37.6678C116.435 39.4674 117.07 41.0099 118.34 42.2953C119.626 43.5656 121.168 44.2007 122.968 44.2007C124.767 44.2007 126.302 43.5656 127.572 42.2953C128.858 41.0099 129.5 39.4674 129.5 37.6678C129.5 35.8683 128.858 34.3333 127.572 33.0631C126.302 31.7777 124.767 31.135 122.968 31.135C121.168 31.135 119.626 31.7777 118.34 33.0631ZM117.183 43.4521C115.595 41.8492 114.802 39.9211 114.802 37.6678C114.802 35.4146 115.595 33.4941 117.183 31.9062C118.786 30.3032 120.714 29.5018 122.968 29.5018C125.221 29.5018 127.141 30.3032 128.729 31.9062C130.332 33.4941 131.134 35.4146 131.134 37.6678C131.134 39.9211 130.332 41.8492 128.729 43.4521C127.141 45.04 125.221 45.8339 122.968 45.8339C120.714 45.8339 118.786 45.04 117.183 43.4521ZM116.026 30.7493C114.121 32.6699 113.168 34.9761 113.168 37.6678C113.168 40.3596 114.121 42.6658 116.026 44.5863C117.947 46.5069 120.261 47.4671 122.968 47.4671C125.675 47.4671 127.981 46.5069 129.886 44.5863C131.807 42.6658 132.767 40.3596 132.767 37.6678C132.767 34.9761 131.807 32.6699 129.886 30.7493C127.981 28.8288 125.675 27.8685 122.968 27.8685C120.261 27.8685 117.947 28.8288 116.026 30.7493ZM113.055 43.4068C112.042 41.6526 111.535 39.7396 111.535 37.6678C111.535 35.5961 112.042 33.6831 113.055 31.9289C114.083 30.1747 115.474 28.791 117.229 27.7778C118.983 26.7495 120.896 26.2353 122.968 26.2353C125.039 26.2353 126.952 26.7495 128.707 27.7778C130.461 28.791 131.844 30.1747 132.858 31.9289C133.886 33.6831 134.4 35.5961 134.4 37.6678C134.4 39.7396 133.886 41.6526 132.858 43.4068C131.844 45.161 130.461 46.5522 128.707 47.5806C126.952 48.5938 125.039 49.1004 122.968 49.1004C120.896 49.1004 118.983 48.5938 117.229 47.5806C115.474 46.5522 114.083 45.161 113.055 43.4068ZM110.923 32.6094C110.242 34.2124 109.902 35.8985 109.902 37.6678C109.902 39.4372 110.242 41.1309 110.923 42.749C111.618 44.3519 112.548 45.7432 113.713 46.9227C114.892 48.0872 116.284 49.0172 117.886 49.7128C119.505 50.3933 121.198 50.7336 122.968 50.7336C124.737 50.7336 126.423 50.3933 128.026 49.7128C129.644 49.0172 131.035 48.0872 132.2 46.9227C133.379 45.7432 134.309 44.3519 134.99 42.749C135.686 41.1309 136.033 39.4372 136.033 37.6678C136.033 35.8985 135.686 34.2124 134.99 32.6094C134.309 30.9913 133.379 29.6 132.2 28.4356C131.035 27.2561 129.644 26.3261 128.026 25.6455C126.423 24.9499 124.737 24.6021 122.968 24.6021C121.198 24.6021 119.505 24.9499 117.886 25.6455C116.284 26.3261 114.892 27.2561 113.713 28.4356C112.548 29.6 111.618 30.9913 110.923 32.6094ZM109.426 43.3841C108.654 41.5694 108.269 39.664 108.269 37.6678C108.269 35.6717 108.654 33.7663 109.426 31.9516C110.212 30.1369 111.255 28.5793 112.556 27.2788C113.871 25.9631 115.437 24.9197 117.251 24.1484C119.066 23.3621 120.971 22.9689 122.968 22.9689C124.964 22.9689 126.869 23.3621 128.684 24.1484C130.499 24.9197 132.056 25.9631 133.357 27.2788C134.672 28.5793 135.716 30.1369 136.487 31.9516C137.273 33.7663 137.667 35.6717 137.667 37.6678C137.667 39.664 137.273 41.5694 136.487 43.3841C135.716 45.1988 134.672 46.7639 133.357 48.0796C132.056 49.3801 130.499 50.4236 128.684 51.2099C126.869 51.9812 124.964 52.3668 122.968 52.3668C120.971 52.3668 119.066 51.9812 117.251 51.2099C115.437 50.4236 113.871 49.3801 112.556 48.0796C111.255 46.7639 110.212 45.1988 109.426 43.3841ZM107.928 31.3391C107.066 33.3504 106.635 35.46 106.635 37.6678C106.635 39.8757 107.066 41.9928 107.928 44.0192C108.79 46.0305 109.947 47.7696 111.399 49.2365C112.866 50.6882 114.605 51.8451 116.616 52.707C118.643 53.569 120.76 54 122.968 54C125.175 54 127.285 53.569 129.296 52.707C131.323 51.8451 133.062 50.6882 134.514 49.2365C135.98 47.7696 137.145 46.0305 138.007 44.0192C138.869 41.9928 139.3 39.8757 139.3 37.6678C139.3 35.46 138.869 33.3504 138.007 31.3391C137.145 29.3127 135.98 27.5736 134.514 26.1219C133.062 24.655 131.323 23.4906 129.296 22.6286C127.285 21.7667 125.175 21.3357 122.968 21.3357C120.76 21.3357 118.643 21.7667 116.616 22.6286C114.605 23.4906 112.866 24.655 111.399 26.1219C109.947 27.5736 108.79 29.3127 107.928 31.3391ZM106.431 44.6544C105.479 42.4314 105.002 40.1025 105.002 37.6678C105.002 35.2331 105.479 32.9118 106.431 30.704C107.384 28.481 108.662 26.568 110.265 24.965C111.868 23.3621 113.773 22.0842 115.981 21.1315C118.204 20.1788 120.533 19.7025 122.968 19.7025C125.402 19.7025 127.724 20.1788 129.931 21.1315C132.154 22.0842 134.067 23.3621 135.67 24.965C137.273 26.568 138.551 28.481 139.504 30.704C140.457 32.9118 140.933 35.2331 140.933 37.6678C140.933 40.1025 140.457 42.4314 139.504 44.6544C138.551 46.8622 137.273 48.7677 135.67 50.3706C134.067 51.9736 132.154 53.2514 129.931 54.2042C127.724 55.1569 125.402 55.6332 122.968 55.6332C120.533 55.6332 118.204 55.1569 115.981 54.2042C113.773 53.2514 111.868 51.9736 110.265 50.3706C108.662 48.7677 107.384 46.8622 106.431 44.6544ZM156.948 38.3937H166.792C168.093 38.3937 169.197 37.9854 170.104 37.1688C171.011 36.3522 171.465 35.2029 171.465 33.7209C171.465 32.6321 170.989 31.6567 170.036 30.7947C169.098 29.9327 168.017 29.5018 166.792 29.5018H152.774V54H151.141V27.8685H166.792C168.471 27.8685 169.938 28.4583 171.193 29.6379C172.463 30.8174 173.098 32.1784 173.098 33.7209C173.098 35.6414 172.486 37.1764 171.261 38.3257C170.036 39.4598 168.546 40.0269 166.792 40.0269H156.948V38.3937ZM156.948 41.6601H166.792C168.97 41.6601 170.837 40.9191 172.395 39.4372C173.953 37.9552 174.731 36.0497 174.731 33.7209C174.731 31.7399 173.938 30.0008 172.35 28.5037C170.762 26.9914 168.909 26.2353 166.792 26.2353H149.507V54H147.874V24.6021H166.792C169.363 24.6021 171.601 25.517 173.507 27.3468C175.412 29.1615 176.365 31.2862 176.365 33.7209C176.365 36.4429 175.42 38.7188 173.529 40.5486C171.654 42.3785 169.408 43.2934 166.792 43.2934H156.948V41.6601ZM156.948 44.9266H166.792C168.804 44.9266 170.664 44.4427 172.372 43.4748C174.081 42.507 175.442 41.1611 176.455 39.4372C177.484 37.7132 177.998 35.8078 177.998 33.7209C177.998 31.8306 177.491 30.0613 176.478 28.4129C175.465 26.7495 174.089 25.4263 172.35 24.4433C170.626 23.4604 168.773 22.9689 166.792 22.9689H146.241V54H144.608V21.3357H166.792C168.501 21.3357 170.142 21.6759 171.715 22.3564C173.302 23.0218 174.671 23.914 175.82 25.0331C176.97 26.137 177.892 27.4527 178.588 28.98C179.283 30.5074 179.631 32.0877 179.631 33.7209C179.631 36.3673 179.026 38.681 177.816 40.6621C176.607 42.628 174.981 44.1251 172.939 45.1534L176.365 54H174.618L171.374 45.8112C170.966 45.9473 170.49 46.0834 169.945 46.2195L173.008 54H171.261L168.267 46.4917C167.798 46.5371 167.306 46.5598 166.792 46.5598L169.673 54H167.949L165.091 46.5598H163.617L166.361 54H164.637L161.87 46.5598H156.948V44.9266ZM156.04 54H154.407V31.135H166.792C167.639 31.135 168.357 31.392 168.947 31.9062C169.537 32.4052 169.832 33.0101 169.832 33.7209C169.832 35.7473 168.819 36.7605 166.792 36.7605H156.948V35.1273H166.792C167.73 35.1273 168.199 34.6585 168.199 33.7209C168.199 33.4638 168.055 33.2445 167.768 33.0631C167.495 32.8665 167.17 32.7682 166.792 32.7682H156.04V54Z" fill="white"/>
</svg>
