<?xml version="1.0" standalone="no"?>
<!DOCTYPE svg PUBLIC "-//W3C//DTD SVG 20010904//EN"
 "http://www.w3.org/TR/2001/REC-SVG-20010904/DTD/svg10.dtd">
<svg version="1.0" xmlns="http://www.w3.org/2000/svg"
 width="512.000000pt" height="512.000000pt" viewBox="0 0 512.000000 512.000000"
 preserveAspectRatio="xMidYMid meet">

<g transform="translate(0.000000,512.000000) scale(0.100000,-0.100000)"
fill="#fff" stroke="none">
<path d="M2370 5106 c-114 -31 -126 -41 -627 -541 -417 -416 -485 -488 -512
-542 -42 -85 -58 -184 -44 -269 24 -140 6 -120 719 -834 l654 -655 -20 -21
-21 -20 -56 28 c-41 21 -70 28 -111 28 -117 0 -98 16 -576 -459 -329 -328
-443 -447 -459 -481 -30 -66 -28 -153 6 -221 l26 -53 -70 -73 c-76 -81 -94
-113 -85 -157 6 -27 -3 -39 -83 -120 -59 -61 -92 -103 -98 -126 -6 -20 -72
-116 -152 -218 -77 -101 -144 -195 -147 -208 -23 -93 56 -178 149 -160 20 4
101 60 217 151 110 86 197 146 215 149 21 4 59 35 120 96 l90 90 53 0 c54 0
55 0 133 77 l79 77 42 -24 c29 -16 63 -25 114 -28 110 -7 147 15 322 191 155
157 165 175 117 222 -47 48 -68 38 -210 -106 -140 -140 -165 -159 -218 -159
-48 0 -85 31 -298 246 -200 203 -213 223 -185 287 8 18 197 215 428 444 398
398 415 413 451 413 21 0 50 -6 65 -14 39 -21 428 -417 437 -444 18 -62 1 -89
-176 -267 -144 -145 -169 -176 -169 -201 0 -39 36 -74 76 -74 24 0 57 28 205
177 103 104 183 195 194 218 31 64 27 167 -8 235 -28 53 -28 54 -8 73 20 20
20 20 79 -35 88 -81 167 -96 257 -51 43 22 65 43 85 83 49 95 34 173 -48 261
l-55 60 67 69 c67 69 67 70 65 120 l-3 51 343 343 c342 342 344 344 392 349
117 14 229 102 264 208 48 142 -20 313 -148 377 -47 23 -155 48 -165 37 -3 -3
-141 130 -307 295 -165 165 -308 300 -317 300 -46 0 -88 -42 -88 -88 0 -9 122
-139 271 -288 l272 -272 -39 -46 -39 -45 -635 634 c-351 351 -648 639 -663
644 -41 16 -93 13 -130 -5 -44 -22 -914 -890 -938 -936 -21 -41 -24 -92 -9
-135 6 -16 295 -312 651 -668 l639 -640 -43 -43 -42 -42 -642 643 c-440 440
-648 656 -664 687 -33 63 -33 174 -1 245 34 73 924 963 997 997 71 32 182 32
245 -1 28 -15 141 -119 305 -282 243 -242 263 -259 296 -259 45 0 69 25 69 71
0 32 -20 55 -272 306 -168 167 -289 279 -315 292 -96 48 -220 63 -313 37z
m238 -529 l122 -123 -30 -29 -30 -29 -27 26 c-62 58 -137 73 -211 43 -44 -19
-538 -506 -583 -574 -48 -75 -37 -163 29 -234 l26 -27 -30 -30 -29 -30 -125
125 -125 125 440 440 c242 242 442 440 445 440 3 0 60 -55 128 -123z m597
-657 l-29 -30 -25 24 c-57 53 -140 71 -208 46 -37 -14 -581 -556 -599 -597
-30 -69 -13 -155 42 -214 l24 -25 -30 -29 -31 -29 -199 199 -200 200 30 29 30
30 27 -26 c60 -58 146 -73 217 -38 57 27 570 542 591 592 29 71 12 153 -42
211 l-27 27 29 30 29 31 200 -200 200 -200 -29 -31z m-588 317 c51 -51 93
-100 93 -108 0 -8 -119 -133 -264 -278 -212 -212 -267 -262 -283 -257 -29 9
-193 181 -193 202 0 25 509 534 535 534 11 0 59 -40 112 -93z m1173 -852 c0
-6 -155 -165 -344 -354 -320 -319 -346 -343 -372 -338 -53 10 -86 -5 -154 -69
l-66 -63 -197 197 -198 198 30 28 30 29 33 -28 c68 -57 133 -69 203 -36 55 26
579 552 600 603 28 68 15 131 -40 196 l-28 33 29 30 28 30 223 -223 c123 -123
223 -227 223 -233z m-662 341 c51 -51 92 -100 92 -107 0 -18 -521 -539 -539
-539 -23 0 -201 181 -201 204 0 29 507 536 536 536 13 0 55 -35 112 -94z
m1054 -192 c71 -36 102 -157 56 -223 -39 -58 -72 -76 -138 -76 -66 0 -99 18
-137 75 -43 62 -23 167 39 213 48 36 121 40 180 11z m-297 -364 l39 -40 -314
-315 -315 -315 -42 42 -43 43 312 312 c172 172 315 313 318 313 3 0 24 -18 45
-40z m-855 -1045 l-210 -210 -97 98 -98 97 210 210 210 210 97 -97 98 -98
-210 -210z m179 -130 c46 -50 51 -75 21 -105 -30 -30 -57 -24 -108 24 l-47 45
40 40 c21 23 42 41 46 41 3 0 25 -20 48 -45z m-1644 -1145 l100 -100 -53 -52
-52 -53 -102 102 -103 103 50 50 c27 27 52 50 55 50 3 0 50 -45 105 -100z
m-212 -208 l47 -48 -63 -62 -63 -62 -49 50 -49 50 59 60 c33 33 62 60 65 60 3
0 27 -22 53 -48z m-229 -231 c16 -18 15 -20 -26 -52 -24 -18 -63 -49 -87 -69
-25 -19 -40 -28 -35 -19 17 30 119 159 125 159 3 0 14 -8 23 -19z"/>
</g>
</svg>
